# xmcd
#
# Track frame offsets:
# 150
# 18588
# 31133
#
# Disc length: 665 seconds
#
# Revision: 1
# Processed by: cddbd v1.5.2PL0 Copyright (c) Steve Scherf et al.
# Submitted via: CedeCatalogueitor 2.6.0.6 http://personales.ya.com/cdcatalogueitor
#
DISCID=19029703
DTITLE=Stars - Ageless Beauty
DYEAR=1900
DGENRE=
TTITLE0=Ageless Beauty
TTITLE1=Petit Mort
TTITLE2=Ageless Beauty (the Most Serene Republic Rmx)
EXTD=
EXTT0=
EXTT1=
EXTT2=
PLAYORDER=
